HIERARCHY
ROOT SimulationBone
{
	OFFSET 0.000000 0.000000 0.000000
	CHANNELS 6 Xposition Yposition Zposition Zrotation Yrotation Xrotation 
	JOINT Hips
	{
		OFFSET 0.000000 0.000000 0.000000
		CHANNELS 6 Xposition Yposition Zposition Zrotation Yrotation Xrotation 
		JOINT RightUpLeg
		{
			OFFSET 0.103456 1.857840 10.548509
			CHANNELS 3 Zrotation Yrotation Xrotation
			JOINT RightLeg
			{
				OFFSET 43.500000 -0.000042 0.000010
				CHANNELS 3 Zrotation Yrotation Xrotation
				JOINT RightFoot
				{
					OFFSET 42.372192 0.000019 0.000000
					CHANNELS 3 Zrotation Yrotation Xrotation
					JOINT RightToe
					{
						OFFSET 17.299999 -0.000000 0.000003
						CHANNELS 3 Zrotation Yrotation Xrotation
						End Site
						{
							OFFSET 0.000000 0.000000 0.000000
						}
					}
				}
			}
		}
		JOINT LeftUpLeg
		{
			OFFSET 0.103456 1.857823 -10.548508
			CHANNELS 3 Zrotation Yrotation Xrotation
			JOINT LeftLeg
			{
				OFFSET 43.500042 -0.000027 0.000004
				CHANNELS 3 Zrotation Yrotation Xrotation
				JOINT LeftFoot
				{
					OFFSET 42.372261 0.000000 0.000010
					CHANNELS 3 Zrotation Yrotation Xrotation
					JOINT LeftToe
					{
						OFFSET 17.299994 -0.000006 0.000017
						CHANNELS 3 Zrotation Yrotation Xrotation
						End Site
						{
							OFFSET 0.000000 0.000000 0.000000
						}
					}
				}
			}
		}
		JOINT Spine
		{
			OFFSET 6.901967 -2.603732 -0.000003
			CHANNELS 3 Zrotation Yrotation Xrotation
			JOINT Spine1
			{
				OFFSET 12.588099 0.000010 0.000008
				CHANNELS 3 Zrotation Yrotation Xrotation
				JOINT Spine2
				{
					OFFSET 12.343201 -0.000018 -0.000005
					CHANNELS 3 Zrotation Yrotation Xrotation
					JOINT Neck
					{
						OFFSET 25.832890 0.000023 0.000007
						CHANNELS 3 Zrotation Yrotation Xrotation
						JOINT Head
						{
							OFFSET 11.766609 -0.000008 -0.000006
							CHANNELS 3 Zrotation Yrotation Xrotation
							End Site
							{
								OFFSET 0.000000 0.000000 0.000000
							}
						}
					}
					JOINT RightShoulder
					{
						OFFSET 19.745909 -1.480347 6.000101
						CHANNELS 3 Zrotation Yrotation Xrotation
						JOINT RightArm
						{
							OFFSET 11.284133 0.000018 -0.000020
							CHANNELS 3 Zrotation Yrotation Xrotation
							JOINT RightForeArm
							{
								OFFSET 33.000050 -0.000013 0.000019
								CHANNELS 3 Zrotation Yrotation Xrotation
								JOINT RightHand
								{
									OFFSET 25.200005 0.000032 0.000011
									CHANNELS 3 Zrotation Yrotation Xrotation
									End Site
									{
										OFFSET 0.000000 0.000000 0.000000
									}
								}
							}
						}
					}
					JOINT LeftShoulder
					{
						OFFSET 19.746101 -1.480358 -6.000078
						CHANNELS 3 Zrotation Yrotation Xrotation
						JOINT LeftArm
						{
							OFFSET 11.284140 -0.000000 -0.000001
							CHANNELS 3 Zrotation Yrotation Xrotation
							JOINT LeftForeArm
							{
								OFFSET 33.000103 0.000016 -0.000001
								CHANNELS 3 Zrotation Yrotation Xrotation
								JOINT LeftHand
								{
									OFFSET 25.199762 0.000123 0.000432
									CHANNELS 3 Zrotation Yrotation Xrotation
									End Site
									{
										OFFSET 0.000000 0.000000 0.000000
									}
								}
							}
						}
					}
				}
			}
		}
	}
}
MOTION
Frames: 7
Frame Time: 0.033333
-214.652252 0.000000 431.149719 0.000000 100.375452 0.000000 -0.486883 90.222511 -1.067483 94.485078 1.762482 -179.874451 157.862201 -5.890304 173.085832 -38.937208 -0.280000 -8.663762 71.074129 4.644077 -5.134026 21.454557 0.003108 0.000018 -179.115086 -3.206601 -171.187299 -17.716271 2.798934 10.372053 79.904553 -7.133730 0.471145 21.454551 -0.003094 -0.000001 8.963826 2.589406 -0.113567 7.921741 5.180503 -0.049721 7.602238 5.179972 -0.081106 4.505463 1.057599 -1.190963 -20.279573 -11.469633 3.471307 -157.414714 -74.438953 -24.560768 2.842231 62.046962 40.868259 -55.948333 -15.989206 2.049587 4.487036 -0.161877 8.603732 -169.462826 76.144083 12.261025 -31.565016 -54.463143 -8.531075 -39.815649 15.983326 -1.517094 8.828914 4.713290 -18.386306 
-214.542162 0.000000 430.578928 0.000000 100.805142 0.000000 -0.670367 90.277679 -1.176063 94.151137 1.552351 -179.818129 157.812709 -4.856405 173.216493 -34.828934 -0.874067 -8.277143 70.512681 4.392123 -5.050310 21.454558 0.003107 0.000017 -178.966174 -3.175713 -171.147356 -17.245111 2.716643 10.658941 79.938956 -7.299118 0.606055 21.454550 -0.003089 0.000002 8.917866 2.591735 -0.057454 7.832283 5.181364 0.060591 7.512742 5.181511 0.029210 4.358878 1.024792 -1.230163 -20.449301 -11.599147 3.499201 -157.492578 -74.314678 -24.483274 2.554971 62.442027 40.678223 -55.752628 -16.159963 2.054127 4.439132 -0.064093 10.096851 -169.574008 76.047456 12.147447 -32.275557 -54.725890 -7.873285 -40.062236 16.052043 -1.528045 8.889286 4.451711 -17.696633 
-214.486934 0.000000 429.920465 0.000000 101.221043 0.000000 -0.907709 90.315262 -1.263553 93.811027 1.414412 -179.847569 157.681884 -3.935098 173.270233 -30.961808 -1.301701 -7.956526 69.993197 4.193620 -4.941241 21.454560 0.003121 0.000018 -178.741365 -3.221694 -171.055886 -16.779422 2.620838 10.784525 80.128112 -7.327209 0.847421 21.454555 -0.003101 -0.000000 8.891841 2.585587 0.012195 7.783202 5.164491 0.198354 7.463713 5.165458 0.167057 4.204999 1.018392 -1.260055 -20.675304 -11.650243 3.515953 -157.685517 -74.253452 -24.286908 1.977946 62.918214 40.153743 -55.038375 -16.369824 2.042932 4.468172 -0.109744 10.480883 -170.151610 75.999856 11.557052 -32.867847 -54.915226 -7.621795 -39.958765 16.158462 -1.532263 8.991163 4.178908 -17.734492 
-214.487607 0.000000 429.174864 0.000000 101.621108 0.000000 -1.162969 90.325279 -1.329407 93.502347 1.322470 -179.891561 157.404127 -3.099791 173.337579 -27.654307 -1.632493 -7.942513 69.568421 4.254401 -4.722399 21.454560 0.003115 0.000018 -178.517062 -3.248893 -170.693531 -16.372397 2.498110 10.782296 80.277501 -7.301484 0.941233 21.454553 -0.003093 -0.000002 8.884174 2.570270 0.080604 7.770741 5.129332 0.333869 7.451253 5.131125 0.302798 4.051032 0.914922 -1.291046 -20.880691 -11.471325 3.421948 -157.916801 -74.215599 -24.050558 1.396835 63.280753 39.553636 -54.225442 -16.527656 2.024971 4.669307 -0.115668 9.909611 -170.665486 75.988908 11.031772 -33.435384 -55.099385 -7.869386 -39.371157 16.397341 -1.532482 9.006626 3.782807 -18.115694 
-214.544667 0.000000 428.345119 0.000000 102.003295 0.000000 -1.416708 90.301682 -1.358164 93.224574 1.274933 -179.949995 156.999985 -2.403697 172.947534 -25.129082 -1.834489 -8.168875 69.079427 4.440179 -4.642792 21.454558 0.003104 0.000017 -178.206206 -3.360194 -170.450021 -16.031094 2.369316 10.812047 80.579246 -7.281608 1.099309 21.454555 -0.003092 0.000001 8.890141 2.543261 0.126284 7.784455 5.072273 0.423666 7.465001 5.074607 0.392938 3.878356 0.676240 -1.339210 -21.105493 -11.231825 3.266994 -157.763095 -74.133357 -24.209614 0.938856 63.372387 39.137080 -53.654312 -16.631243 2.012066 4.826988 -0.133866 9.412597 -171.863788 76.101858 9.807514 -33.825368 -55.376206 -8.210512 -38.592123 16.543217 -1.521964 9.233469 3.444188 -19.002647 
-214.655801 0.000000 427.436967 0.000000 102.365569 0.000000 -1.636570 90.254692 -1.344043 92.999974 1.309813 179.986734 156.574915 -1.881393 171.888650 -23.388195 -1.936010 -8.698518 68.649644 4.758914 -4.825442 21.454558 0.003108 0.000018 -177.744472 -3.609893 -170.303650 -15.583447 2.157994 10.920418 80.808077 -7.301023 1.317740 21.454550 -0.003102 -0.000001 8.901972 2.515857 0.175523 7.809977 5.014144 0.520836 7.490556 5.017064 0.490469 3.800915 0.338969 -1.472563 -21.459360 -11.032368 3.036845 -157.494204 -74.094049 -24.485769 0.620570 63.252469 38.931429 -53.280100 -16.636102 1.999454 4.820245 -0.160805 9.371285 -172.663467 76.147887 8.990624 -34.003622 -55.586569 -8.759402 -37.716854 16.573951 -1.501944 9.699940 2.767819 -19.971190 
-214.815238 0.000000 426.457684 0.000000 102.705896 0.000000 -1.784078 90.172539 -1.293642 92.860045 1.406684 179.929835 156.314097 -1.529094 169.809759 -22.358232 -1.881949 -9.328840 68.517712 5.147325 -5.029064 21.454553 0.003104 0.000016 -177.076288 -3.946303 -170.200760 -15.104994 1.926936 10.994795 81.127361 -7.276458 1.632221 21.454551 -0.003094 0.000001 8.909907 2.487589 0.228240 7.827782 4.954078 0.624694 7.508412 4.957623 0.594687 3.830377 -0.114555 -1.683853 -21.717188 -10.827626 2.693334 -157.275501 -74.069119 -24.710287 0.530594 62.995572 38.958791 -53.024193 -16.627004 1.990041 4.804161 -0.075088 9.356166 -172.970525 76.219235 8.677424 -34.081145 -55.849210 -9.252686 -36.765665 16.363318 -1.464949 10.407463 2.020089 -20.663938 
